{"title":"How do they do it S07E14 480p-shadowCopy","uid":9518221,"size":181463166,"categoryP":"video","categoryS":"tv_shows","magnet":"?xt=urn:btih:e333568feb2ea7b03bd2ffedbbf6019b136919e3&amp;dn=How+do+they+do+it+S07E14+480p-shadowCopy&amp;tr=udp%3A%2F%2Ftracker.openbittorrent.com%3A80&amp;tr=udp%3A%2F%2Fopen.demonii.com%3A1337&amp;tr=udp%3A%2F%2Ftracker.coppersurfer.tk%3A6969&amp;tr=udp%3A%2F%2Fexodus.desync.com%3A6969","seeders":2,"leechers":0,"uploader":"tlbslicer","files":2,"time":1390571757,"description":"Screenshots:\n &lt;a href=&quot;\nhttp://s29.postimg.org/jofdklpdz/vlcsnap_2014_01_24_14h49m08s92.png&quot; rel=&quot;nofollow&quot; target=&quot;_NEW&quot;&gt;\nhttp://s29.postimg.org/jofdklpdz/vlcsnap_2014_01_24_14h49m08s92.png&lt;/a&gt;\n &lt;a href=&quot;\nhttp://s29.postimg.org/cvf0obykn/vlcsnap_2014_01_24_14h49m18s189.png&quot; rel=&quot;nofollow&quot; target=&quot;_NEW&quot;&gt;\nhttp://s29.postimg.org/cvf0obykn/vlcsnap_2014_01_24_14h49m18s189.png&lt;/a&gt;\n &lt;a href=&quot;\nhttp://s29.postimg.org/si6a1pccn/vlcsnap_2014_01_24_14h49m39s145.png&quot; rel=&quot;nofollow&quot; target=&quot;_NEW&quot;&gt;\nhttp://s29.postimg.org/si6a1pccn/vlcsnap_2014_01_24_14h49m39s145.png&lt;/a&gt;\n\n\nHow.do.they.do.it.S07E14.HDTV.480p-shadowCopy\n \nFormat                                   : MPEG-4\nFormat profile                           : Base Media\nCodec ID                                 : isom\nFile size                                : 173 MiB\nDuration                                 : 21mn 51s\nOverall bit rate                         : 1 107 Kbps\nWriting application                      : Lavf54.63.104\n\nVideo\nID                                       : 1\nFormat                                   : AVC\nFormat/Info                              : Advanced Video Codec\nFormat profile                           : &lt;a class=&quot;__cf_email__&quot; href=&quot;/cdn-cgi/l/email-protection&quot; data-cfemail=&quot;ffb7969897bfb3ccd1ce&quot;&gt;[email&amp;#160;protected]&lt;/a&gt;&lt;script cf-hash='f9e31' type=&quot;text/javascript&quot;&gt;\n/* &lt;![CDATA[ */!function(){try{var t=&quot;currentScript&quot;in document?document.currentScript:function(){for(var t=document.getElementsByTagName(&quot;script&quot;),e=t.length;e--;)if(t[e].getAttribute(&quot;cf-hash&quot;))return t[e]}();if(t&amp;&amp;t.previousSibling){var e,r,n,i,c=t.previousSibling,a=c.getAttribute(&quot;data-cfemail&quot;);if(a){for(e=&quot;&quot;,r=parseInt(a.substr(0,2),16),n=2;a.length-n;n+=2)i=parseInt(a.substr(n,2),16)^r,e+=String.fromCharCode(i);e=document.createTextNode(e),c.parentNode.replaceChild(e,c)}}}catch(u){}}();/* ]]&gt; */&lt;/script&gt;\nFormat settings, CABAC                   : Yes\nFormat settings, ReFrames                : 4 frames\nCodec ID                                 : avc1\nCodec ID/Info                            : Advanced Video Coding\nDuration                                 : 21mn 51s\nBit rate                                 : 900 Kbps\nWidth                                    : 720 pixels\nHeight                                   : 578 pixels\nDisplay aspect ratio                     : 5:4\nOriginal display aspect ratio            : 16:9\nFrame rate mode                          : Constant\nFrame rate                               : 25.000 fps\nColor space                              : YUV\nChroma subsampling                       : 4:2:0\nBit depth                                : 8 bits\nScan type                                : Progressive\nBits/(Pixel*Frame)                       : 0.087\nStream size                              : 147 MiB (85%)\nWriting library                          : x264 core 130 r2273 b3065e6\nEncoding settings                        : cabac=1 / ref=3 / deblock=1:0:0 / analyse=0x3:0x113 / me=hex / subme=7 / psy=1 / psy_rd=1.00:0.00 / mixed_ref=1 / me_range=16 / chroma_me=1 / trellis=1 / 8x8dct=1 / cqm=0 / deadzone=21,11 / fast_pskip=1 / chroma_qp_offset=-2 / threads=4 / lookahead_threads=1 / sliced_threads=0 / nr=0 / decimate=1 / interlaced=0 / bluray_compat=0 / constrained_intra=0 / bframes=3 / b_pyramid=2 / b_adapt=1 / b_bias=0 / direct=1 / weightb=1 / open_gop=0 / weightp=2 / keyint=250 / keyint_min=25 / scenecut=40 / intra_refresh=0 / rc_lookahead=40 / rc=2pass / mbtree=1 / bitrate=900 / ratetol=1.0 / qcomp=0.60 / qpmin=0 / qpmax=69 / qpstep=4 / cplxblur=20.0 / qblur=0.5 / vbv_maxrate=17500 / vbv_bufsize=17500 / nal_hrd=none / ip_ratio=1.40 / aq=1:1.00\nColor primaries                          : BT.601 PAL\nTransfer characteristics                 : BT.709\nMatrix coefficients                      : BT.601\n\nAudio\nID                                       : 2\nFormat                                   : AAC\nFormat/Info                              : Advanced Audio Codec\nFormat profile                           : LC\nCodec ID                                 : 40\nDuration                                 : 21mn 51s\nBit rate mode                            : Constant\nBit rate                                 : 160 Kbps\nChannel(s)                               : 2 channels\nChannel positions                        : Front: L R\nSampling rate                            : 48.0 KHz\nCompression mode                         : Lossy\nStream size                              : 25.0 MiB (14%)\nLanguage                                 : English\n\n ","torrent":{"xt":"urn:btih:e333568feb2ea7b03bd2ffedbbf6019b136919e3","amp;dn":"How+do+they+do+it+S07E14+480p-shadowCopy","amp;tr":["udp%3A%2F%2Ftracker.openbittorrent.com%3A80","udp%3A%2F%2Fopen.demonii.com%3A1337","udp%3A%2F%2Ftracker.coppersurfer.tk%3A6969","udp%3A%2F%2Fexodus.desync.com%3A6969"],"infoHash":"e333568feb2ea7b03bd2ffedbbf6019b136919e3","infoHashBuffer":{"type":"Buffer","data":[227,51,86,143,235,46,167,176,59,210,255,237,187,246,1,155,19,105,25,227]},"announce":[],"urlList":[]}}